STARTFONT 2.1
FONT -FontForge-Zen Tokyo Zoo-Book-R-Normal--24-240-72-72-P-112-ISO10646-1
SIZE 24 72 72
FONTBOUNDINGBOX 31 32 -2 -6
COMMENT "Generated by fontforge, http://fontforge.sourceforge.net"
COMMENT "Copyright 2021 The Zen Tokyo Zoo Project Authors (https://github.com/googlefonts/zen-tokyo-zoo)"
STARTPROPERTIES 39
FOUNDRY "FontForge"
FAMILY_NAME "Zen Tokyo Zoo"
WEIGHT_NAME "Book"
SLANT "R"
SETWIDTH_NAME "Normal"
ADD_STYLE_NAME ""
PIXEL_SIZE 24
POINT_SIZE 240
RESOLUTION_X 72
RESOLUTION_Y 72
SPACING "P"
AVERAGE_WIDTH 112
CHARSET_REGISTRY "ISO10646"
CHARSET_ENCODING "1"
FONTNAME_REGISTRY ""
CHARSET_COLLECTIONS "ISO10646-1"
FONT_NAME "ZenTokyoZoo-Regular"
FACE_NAME "Zen Tokyo Zoo Regular"
COPYRIGHT "Copyright 2021 The Zen Tokyo Zoo Project Authors (https://github.com/googlefonts/zen-tokyo-zoo)"
FONT_VERSION "1.002; ttfautohint (v1.8.3)"
FONT_ASCENT 19
FONT_DESCENT 5
UNDERLINE_POSITION -3
UNDERLINE_THICKNESS 1
X_HEIGHT 9
CAP_HEIGHT 19
RAW_ASCENT 800
RAW_DESCENT 200
NORM_SPACE 7
RELATIVE_WEIGHT 40
RELATIVE_SETWIDTH 50
SUPERSCRIPT_X 0
SUPERSCRIPT_Y 8
SUPERSCRIPT_SIZE 14
SUBSCRIPT_X 0
SUBSCRIPT_Y 1
SUBSCRIPT_SIZE 14
AVG_LOWERCASE_WIDTH 100
AVG_UPPERCASE_WIDTH 180
ENDPROPERTIES
CHARS 338
STARTCHAR CR
ENCODING 13
SWIDTH 600 0
DWIDTH 14 0
BBX 1 1 0 0
BITMAP
00
ENDCHAR
STARTCHAR space
ENCODING 32
SWIDTH 280 0
DWIDTH 7 0
BBX 1 1 0 0
BITMAP
00
ENDCHAR
STARTCHAR exclam
ENCODING 33
SWIDTH 196 0
DWIDTH 5 0
BBX 3 10 1 0
BITMAP
A0
A0
A0
A0
A0
A0
A0
00
A0
A0
ENDCHAR
STARTCHAR quotedbl
ENCODING 34
SWIDTH 302 0
DWIDTH 7 0
BBX 6 3 1 7
BITMAP
D4
D4
D4
ENDCHAR
STARTCHAR numbersign
ENCODING 35
SWIDTH 513 0
DWIDTH 12 0
BBX 10 10 1 0
BITMAP
1A80
6FC0
2800
6FC0
0300
FB40
0300
FD80
5500
5500
ENDCHAR
STARTCHAR dollar
ENCODING 36
SWIDTH 379 0
DWIDTH 9 0
BBX 7 12 1 -1
BITMAP
10
54
92
D6
E0
9C
72
0E
D6
92
54
10
ENDCHAR
STARTCHAR percent
ENCODING 37
SWIDTH 493 0
DWIDTH 12 0
BBX 10 10 1 0
BITMAP
7180
F280
ED00
9600
6A00
1780
1B40
2DC0
5540
E380
ENDCHAR
STARTCHAR ampersand
ENCODING 38
SWIDTH 487 0
DWIDTH 12 0
BBX 10 10 1 0
BITMAP
1E00
2E00
3500
3500
2A00
5540
AA40
AA80
B500
7A80
ENDCHAR
STARTCHAR quotesingle
ENCODING 39
SWIDTH 146 0
DWIDTH 4 0
BBX 2 3 1 7
BITMAP
C0
C0
C0
ENDCHAR
STARTCHAR parenleft
ENCODING 40
SWIDTH 210 0
DWIDTH 5 0
BBX 4 11 1 -1
BITMAP
70
A0
A0
C0
C0
C0
C0
C0
A0
A0
70
ENDCHAR
STARTCHAR parenright
ENCODING 41
SWIDTH 210 0
DWIDTH 5 0
BBX 3 11 1 -1
BITMAP
C0
A0
A0
60
60
60
60
60
A0
A0
C0
ENDCHAR
STARTCHAR asterisk
ENCODING 42
SWIDTH 358 0
DWIDTH 9 0
BBX 6 6 1 4
BITMAP
30
B4
C8
44
78
6C
ENDCHAR
STARTCHAR plus
ENCODING 43
SWIDTH 394 0
DWIDTH 9 0
BBX 8 7 1 1
BITMAP
28
28
EB
28
EB
28
28
ENDCHAR
STARTCHAR comma
ENCODING 44
SWIDTH 216 0
DWIDTH 5 0
BBX 3 3 1 -1
BITMAP
60
A0
A0
ENDCHAR
STARTCHAR hyphen
ENCODING 45
SWIDTH 326 0
DWIDTH 8 0
BBX 6 3 1 4
BITMAP
FC
00
FC
ENDCHAR
STARTCHAR period
ENCODING 46
SWIDTH 176 0
DWIDTH 4 0
BBX 2 2 1 0
BITMAP
C0
C0
ENDCHAR
STARTCHAR slash
ENCODING 47
SWIDTH 298 0
DWIDTH 7 0
BBX 5 10 1 0
BITMAP
18
28
28
30
50
50
60
A0
A0
C0
ENDCHAR
STARTCHAR zero
ENCODING 48
SWIDTH 306 0
DWIDTH 7 0
BBX 6 10 1 0
BITMAP
70
B8
D4
D4
D4
D4
D4
D4
B8
70
ENDCHAR
STARTCHAR one
ENCODING 49
SWIDTH 306 0
DWIDTH 7 0
BBX 5 10 1 0
BITMAP
D8
18
D8
18
18
18
18
18
18
18
ENDCHAR
STARTCHAR two
ENCODING 50
SWIDTH 299 0
DWIDTH 7 0
BBX 5 10 1 0
BITMAP
70
B8
58
28
28
50
A0
00
F8
F8
ENDCHAR
STARTCHAR three
ENCODING 51
SWIDTH 324 0
DWIDTH 8 0
BBX 6 10 1 0
BITMAP
78
B4
D4
04
18
14
D4
B4
84
78
ENDCHAR
STARTCHAR four
ENCODING 52
SWIDTH 339 0
DWIDTH 8 0
BBX 6 10 1 0
BITMAP
28
28
50
50
A0
0C
EC
0C
EC
0C
ENDCHAR
STARTCHAR five
ENCODING 53
SWIDTH 363 0
DWIDTH 9 0
BBX 6 10 2 0
BITMAP
F8
F8
00
C0
D0
C8
14
D4
A8
70
ENDCHAR
STARTCHAR six
ENCODING 54
SWIDTH 306 0
DWIDTH 7 0
BBX 6 10 1 0
BITMAP
78
B8
C4
C0
D0
C8
D4
D4
B8
70
ENDCHAR
STARTCHAR seven
ENCODING 55
SWIDTH 298 0
DWIDTH 7 0
BBX 5 10 1 0
BITMAP
F8
00
F8
00
28
28
30
30
50
50
ENDCHAR
STARTCHAR eight
ENCODING 56
SWIDTH 306 0
DWIDTH 7 0
BBX 6 10 1 0
BITMAP
70
B8
D4
AC
90
48
A4
D4
B8
70
ENDCHAR
STARTCHAR nine
ENCODING 57
SWIDTH 306 0
DWIDTH 7 0
BBX 6 10 1 0
BITMAP
70
B8
D4
B4
94
74
14
54
B8
70
ENDCHAR
STARTCHAR colon
ENCODING 58
SWIDTH 176 0
DWIDTH 4 0
BBX 2 6 1 0
BITMAP
C0
C0
00
00
C0
C0
ENDCHAR
STARTCHAR semicolon
ENCODING 59
SWIDTH 217 0
DWIDTH 5 0
BBX 3 6 1 0
BITMAP
60
60
00
40
A0
A0
ENDCHAR
STARTCHAR less
ENCODING 60
SWIDTH 450 0
DWIDTH 11 0
BBX 9 10 1 0
BITMAP
0080
0300
0480
1B00
3400
C800
3600
0D80
0200
0180
ENDCHAR
STARTCHAR equal
ENCODING 61
SWIDTH 344 0
DWIDTH 8 0
BBX 6 6 1 1
BITMAP
FC
FC
00
00
FC
FC
ENDCHAR
STARTCHAR greater
ENCODING 62
SWIDTH 450 0
DWIDTH 11 0
BBX 9 10 1 0
BITMAP
8000
6000
9800
6400
1B80
1600
6C00
9800
6000
8000
ENDCHAR
STARTCHAR question
ENCODING 63
SWIDTH 346 0
DWIDTH 8 0
BBX 6 10 1 0
BITMAP
78
B4
AC
14
14
28
30
30
00
30
ENDCHAR
STARTCHAR at
ENCODING 64
SWIDTH 490 0
DWIDTH 12 0
BBX 10 10 1 0
BITMAP
3F00
5C80
AD40
DEC0
F2C0
B2C0
DF40
AF80
5C00
1F00
ENDCHAR
STARTCHAR A
ENCODING 65
SWIDTH 798 0
DWIDTH 19 0
BBX 19 20 0 0
BITMAP
015000
01A800
02A800
02D800
035800
055400
05B400
06AC00
0AAA00
0B1A00
0D1600
151500
160D00
1AEA80
2BFA80
2C0580
35FD40
540340
5802C0
E802A0
ENDCHAR
STARTCHAR B
ENCODING 66
SWIDTH 784 0
DWIDTH 19 0
BBX 17 20 1 0
BITMAP
B7F800
B00400
B7FA00
B00500
B7F500
B00B00
B00B00
B00D00
B7F500
B7FA00
B00500
B7FA80
B00680
B00580
B00580
B00680
B7FA80
B00500
B7FA00
B7FC00
ENDCHAR
STARTCHAR C
ENCODING 67
SWIDTH 776 0
DWIDTH 19 0
BBX 17 20 1 0
BITMAP
03F800
0DF600
160D80
29F200
560D00
680200
A80000
D00000
D00000
D00000
D00000
D00000
D00000
A80000
680200
560C00
29F300
160580
0DFE00
03F800
ENDCHAR
STARTCHAR D
ENCODING 68
SWIDTH 806 0
DWIDTH 19 0
BBX 18 20 1 0
BITMAP
B7E000
B01800
B7E400
B01200
B7CD00
B03280
B00A80
B00580
B00540
B00540
B00340
B00540
B00580
B00580
B00A80
B03300
B7C600
B01C00
B7F800
B7E000
ENDCHAR
STARTCHAR E
ENCODING 69
SWIDTH 677 0
DWIDTH 16 0
BBX 15 20 1 0
BITMAP
B7FE
B000
B7FE
B000
B7FE
B000
B000
B000
B7F8
B000
B7F8
B7F8
B000
B000
B000
B000
B7FE
B000
B7FE
B7FE
ENDCHAR
STARTCHAR F
ENCODING 70
SWIDTH 677 0
DWIDTH 16 0
BBX 15 20 1 0
BITMAP
B7FE
B000
B7FE
B000
B7FE
B000
B000
B000
B7F8
B000
B7F8
B7F8
B000
B000
B000
B000
B000
B000
B000
B000
ENDCHAR
STARTCHAR G
ENCODING 71
SWIDTH 872 0
DWIDTH 21 0
BBX 19 20 1 0
BITMAP
03F800
0DFE00
160580
29F3C0
560D40
680280
A80100
D00000
D00000
D03FE0
D03FE0
D00000
D03FE0
A80100
6802A0
560D40
29F380
160580
0DFE00
03F800
ENDCHAR
STARTCHAR H
ENCODING 72
SWIDTH 781 0
DWIDTH 19 0
BBX 17 20 1 0
BITMAP
B00680
B00680
B00680
B00680
B00680
B00680
B00680
B00680
B7F680
B00680
B7F680
B7F680
B00680
B00680
B00680
B00680
B00680
B00680
B00680
B00680
ENDCHAR
STARTCHAR I
ENCODING 73
SWIDTH 262 0
DWIDTH 6 0
BBX 4 20 1 0
BITMAP
B0
B0
B0
B0
B0
B0
B0
B0
B0
B0
B0
B0
B0
B0
B0
B0
B0
B0
B0
B0
ENDCHAR
STARTCHAR J
ENCODING 74
SWIDTH 674 0
DWIDTH 16 0
BBX 14 20 1 0
BITMAP
002C
002C
002C
002C
002C
002C
002C
002C
002C
002C
002C
002C
D02C
D034
D034
A854
A7A8
5070
3FA0
0FC0
ENDCHAR
STARTCHAR K
ENCODING 75
SWIDTH 739 0
DWIDTH 18 0
BBX 16 20 1 0
BITMAP
B015
B02A
B02A
B054
B0A8
B0D0
B150
B2A0
B540
B280
BA80
B540
B2A0
B150
B150
B0A8
B054
B02A
B02A
B015
ENDCHAR
STARTCHAR L
ENCODING 76
SWIDTH 604 0
DWIDTH 15 0
BBX 13 20 1 0
BITMAP
B000
B000
B000
B000
B000
B000
B000
B000
B000
B000
B000
B000
B000
B000
B000
B000
B7F8
B000
B7F8
B7F8
ENDCHAR
STARTCHAR M
ENCODING 77
SWIDTH 909 0
DWIDTH 22 0
BBX 20 20 1 0
BITMAP
B000D0
B002D0
B402D0
B404D0
BA06D0
B50AD0
B514D0
B696D0
B56AD0
B2B4D0
B2A8D0
B150D0
B0B0D0
B0A0D0
B040D0
B040D0
B000D0
B000D0
B000D0
B000D0
ENDCHAR
STARTCHAR N
ENCODING 78
SWIDTH 796 0
DWIDTH 19 0
BBX 17 20 1 0
BITMAP
B00680
B40680
B40680
B20680
B60680
B50680
B28680
B68680
B54680
B2A680
B2A680
B15680
B0B680
B0A680
B05680
B03680
B02680
B01680
B00E80
B00680
ENDCHAR
STARTCHAR O
ENCODING 79
SWIDTH 894 0
DWIDTH 21 0
BBX 20 20 1 0
BITMAP
03F800
0DFE00
160780
29F180
560CC0
6802A0
A80160
D00150
D000D0
D000D0
D000D0
D000D0
D00150
A80160
6802A0
5604C0
29F9C0
160780
0DFE00
03F800
ENDCHAR
STARTCHAR P
ENCODING 80
SWIDTH 743 0
DWIDTH 18 0
BBX 16 20 1 0
BITMAP
B7F8
B004
B7FA
B005
B7F5
B00B
B00B
B00D
B7F5
B7FA
B004
B7F8
B000
B000
B000
B000
B000
B000
B000
B000
ENDCHAR
STARTCHAR Q
ENCODING 81
SWIDTH 911 0
DWIDTH 22 0
BBX 20 20 1 0
BITMAP
03F800
0DFE00
160780
29F180
560CC0
6802A0
A80160
D00150
D000D0
D000D0
D000D0
D006D0
D00A50
A81560
680AA0
560540
29FAA0
160D50
0DF2A0
03F840
ENDCHAR
STARTCHAR R
ENCODING 82
SWIDTH 745 0
DWIDTH 18 0
BBX 16 20 1 0
BITMAP
B7F8
B004
B7FA
B005
B7F5
B00B
B00B
B00D
B7F5
B7FA
B004
B7F8
B088
B068
B054
B034
B02A
B01A
B016
B01D
ENDCHAR
STARTCHAR S
ENCODING 83
SWIDTH 660 0
DWIDTH 16 0
BBX 14 20 1 0
BITMAP
0FC0
3FB0
5068
A794
D854
D020
D000
AC00
5BC0
2720
18D8
07A4
0054
002C
102C
D06C
AF94
5028
2FF0
1FC0
ENDCHAR
STARTCHAR T
ENCODING 84
SWIDTH 641 0
DWIDTH 15 0
BBX 15 20 0 0
BITMAP
FFFE
0000
FFFE
0000
FFFE
0000
0340
0340
0340
0340
0340
0340
0340
0340
0340
0340
0340
0340
0340
0340
ENDCHAR
STARTCHAR U
ENCODING 85
SWIDTH 702 0
DWIDTH 17 0
BBX 15 20 1 0
BITMAP
B01A
B01A
B01A
B01A
B01A
B01A
B01A
B01A
B01A
B01A
B01A
B01A
B01A
B01A
A82A
686C
5794
2828
17D0
0FE0
ENDCHAR
STARTCHAR V
ENCODING 86
SWIDTH 758 0
DWIDTH 18 0
BBX 18 20 0 0
BITMAP
E80540
580580
540680
340A80
340B00
2A0D00
2A1500
1A1600
161A00
152A00
0D2C00
0B3400
0AD400
069800
05A800
056800
035000
02D000
02A000
01A000
ENDCHAR
STARTCHAR W
ENCODING 87
SWIDTH 972 0
DWIDTH 23 0
BBX 23 20 0 0
BITMAP
A82C1A
68342A
58542C
585834
545A34
346A54
2CAA58
2CB668
2AB668
1AD5A8
16D5B0
166D50
156B50
0DAAD0
0D26A0
0B46A0
0AC5A0
06C540
068340
058340
ENDCHAR
STARTCHAR X
ENCODING 88
SWIDTH 712 0
DWIDTH 17 0
BBX 17 20 0 0
BITMAP
541D00
2C1600
2A2A00
163400
155400
0AA800
0AA800
055000
035000
02A000
016000
055000
06A800
0AA800
0D5400
155400
2A2A00
2C1A00
541500
F80B80
ENDCHAR
STARTCHAR Y
ENCODING 89
SWIDTH 769 0
DWIDTH 18 0
BBX 18 20 0 0
BITMAP
E80540
540680
2A0A80
2A1500
151600
0B2A00
0AB400
055400
034800
02A800
015000
000000
016000
016000
016000
016000
016000
016000
016000
016000
ENDCHAR
STARTCHAR Z
ENCODING 90
SWIDTH 708 0
DWIDTH 17 0
BBX 17 20 0 0
BITMAP
3FEA80
001500
3FDA00
002A00
3FD400
005400
00A800
00D000
015000
02A000
02A000
054000
068000
0A8000
150000
150000
2AFE00
2C0000
55FE00
ABFE00
ENDCHAR
STARTCHAR bracketleft
ENCODING 91
SWIDTH 320 0
DWIDTH 8 0
BBX 5 11 1 -1
BITMAP
B8
B8
A0
A0
A0
A0
A0
A0
B8
A0
B8
ENDCHAR
STARTCHAR backslash
ENCODING 92
SWIDTH 298 0
DWIDTH 7 0
BBX 5 10 1 0
BITMAP
C0
A0
A0
60
50
50
30
28
28
18
ENDCHAR
STARTCHAR bracketright
ENCODING 93
SWIDTH 320 0
DWIDTH 8 0
BBX 5 11 1 -1
BITMAP
D8
D8
18
18
18
18
18
18
D8
18
D8
ENDCHAR
STARTCHAR asciicircum
ENCODING 94
SWIDTH 309 0
DWIDTH 7 0
BBX 5 4 1 6
BITMAP
20
30
50
A8
ENDCHAR
STARTCHAR underscore
ENCODING 95
SWIDTH 472 0
DWIDTH 11 0
BBX 9 3 1 0
BITMAP
FF80
0000
FF80
ENDCHAR
STARTCHAR grave
ENCODING 96
SWIDTH 195 0
DWIDTH 5 0
BBX 2 3 1 11
BITMAP
80
40
40
ENDCHAR
STARTCHAR a
ENCODING 97
SWIDTH 414 0
DWIDTH 10 0
BBX 10 10 0 0
BITMAP
1C00
1600
1A00
2D00
2D00
3300
5E80
5280
7F80
A140
ENDCHAR
STARTCHAR b
ENCODING 98
SWIDTH 423 0
DWIDTH 10 0
BBX 8 10 1 0
BITMAP
BE
C1
BD
C3
BF
BD
C3
C3
BD
BE
ENDCHAR
STARTCHAR c
ENCODING 99
SWIDTH 446 0
DWIDTH 11 0
BBX 9 10 1 0
BITMAP
3F00
5E80
A100
C000
C000
C000
C000
A100
5E80
3F00
ENDCHAR
STARTCHAR d
ENCODING 100
SWIDTH 450 0
DWIDTH 11 0
BBX 9 10 1 0
BITMAP
BC00
C300
BC80
C280
C280
C180
C280
C280
BF00
BC00
ENDCHAR
STARTCHAR e
ENCODING 101
SWIDTH 363 0
DWIDTH 9 0
BBX 7 10 1 0
BITMAP
BE
C0
BE
C0
BE
BE
C0
C0
BE
BE
ENDCHAR
STARTCHAR f
ENCODING 102
SWIDTH 365 0
DWIDTH 9 0
BBX 7 10 1 0
BITMAP
BE
C0
BE
C0
BE
BE
C0
C0
C0
C0
ENDCHAR
STARTCHAR g
ENCODING 103
SWIDTH 483 0
DWIDTH 12 0
BBX 10 10 1 0
BITMAP
3F00
5C80
A100
C000
C7C0
C000
C7C0
A140
5F80
3E00
ENDCHAR
STARTCHAR h
ENCODING 104
SWIDTH 428 0
DWIDTH 10 0
BBX 8 10 1 0
BITMAP
C3
C3
C3
C3
BF
BF
C3
C3
C3
C3
ENDCHAR
STARTCHAR i
ENCODING 105
SWIDTH 176 0
DWIDTH 4 0
BBX 2 10 1 0
BITMAP
C0
C0
C0
C0
C0
C0
C0
C0
C0
C0
ENDCHAR
STARTCHAR j
ENCODING 106
SWIDTH 390 0
DWIDTH 9 0
BBX 7 10 1 0
BITMAP
06
06
06
06
06
06
C6
C6
BA
7C
ENDCHAR
STARTCHAR k
ENCODING 107
SWIDTH 381 0
DWIDTH 9 0
BBX 8 10 1 0
BITMAP
C7
CA
D4
D4
D8
D8
A8
D4
CA
C5
ENDCHAR
STARTCHAR l
ENCODING 108
SWIDTH 330 0
DWIDTH 8 0
BBX 7 10 1 0
BITMAP
C0
C0
C0
C0
C0
C0
C0
C0
BE
BE
ENDCHAR
STARTCHAR m
ENCODING 109
SWIDTH 501 0
DWIDTH 12 0
BBX 10 10 1 0
BITMAP
A140
A140
D2C0
AD40
D6C0
D2C0
C8C0
C0C0
C0C0
C0C0
ENDCHAR
STARTCHAR n
ENCODING 110
SWIDTH 444 0
DWIDTH 11 0
BBX 9 10 1 0
BITMAP
A280
A280
D280
AA80
EA80
D680
CA80
C680
C680
C280
ENDCHAR
STARTCHAR o
ENCODING 111
SWIDTH 494 0
DWIDTH 12 0
BBX 10 10 1 0
BITMAP
3E00
5F80
A140
C140
C0C0
C0C0
C140
A140
5D80
3E00
ENDCHAR
STARTCHAR p
ENCODING 112
SWIDTH 412 0
DWIDTH 10 0
BBX 8 10 1 0
BITMAP
BE
C1
BD
C3
BD
BE
C0
C0
C0
C0
ENDCHAR
STARTCHAR q
ENCODING 113
SWIDTH 494 0
DWIDTH 12 0
BBX 10 10 1 0
BITMAP
3E00
5F80
A180
C140
C0C0
C2C0
C140
A6C0
5F40
3E80
ENDCHAR
STARTCHAR r
ENCODING 114
SWIDTH 412 0
DWIDTH 10 0
BBX 8 10 1 0
BITMAP
BE
C1
BD
C3
BD
BE
CA
CA
C5
C5
ENDCHAR
STARTCHAR s
ENCODING 115
SWIDTH 379 0
DWIDTH 9 0
BBX 7 10 1 0
BITMAP
7C
BA
C4
B0
8C
72
0A
46
BA
7C
ENDCHAR
STARTCHAR t
ENCODING 116
SWIDTH 349 0
DWIDTH 8 0
BBX 8 10 0 0
BITMAP
FF
00
FF
18
18
18
18
18
18
18
ENDCHAR
STARTCHAR u
ENCODING 117
SWIDTH 400 0
DWIDTH 10 0
BBX 8 10 1 0
BITMAP
C5
C5
C5
C5
C5
C5
C5
A5
7A
3C
ENDCHAR
STARTCHAR v
ENCODING 118
SWIDTH 394 0
DWIDTH 9 0
BBX 9 10 0 0
BITMAP
A380
6280
5280
5300
3500
2D00
2A00
1A00
1400
1400
ENDCHAR
STARTCHAR w
ENCODING 119
SWIDTH 521 0
DWIDTH 13 0
BBX 12 10 0 0
BITMAP
A530
A550
6750
5B50
5B60
3AA0
36A0
2DC0
2D40
1940
ENDCHAR
STARTCHAR x
ENCODING 120
SWIDTH 369 0
DWIDTH 9 0
BBX 9 10 0 0
BITMAP
E700
5500
2A00
2A00
1400
1400
2A00
3A00
5500
A380
ENDCHAR
STARTCHAR y
ENCODING 121
SWIDTH 422 0
DWIDTH 10 0
BBX 10 10 0 0
BITMAP
A140
5280
2D00
2D00
1600
0800
0C00
0C00
0C00
0C00
ENDCHAR
STARTCHAR z
ENCODING 122
SWIDTH 409 0
DWIDTH 10 0
BBX 8 10 1 0
BITMAP
FF
00
FF
0A
14
28
58
90
FF
FF
ENDCHAR
STARTCHAR braceleft
ENCODING 123
SWIDTH 443 0
DWIDTH 11 0
BBX 8 11 1 -1
BITMAP
17
17
14
14
D4
14
D4
14
17
14
17
ENDCHAR
STARTCHAR bar
ENCODING 124
SWIDTH 196 0
DWIDTH 5 0
BBX 3 11 1 -1
BITMAP
A0
A0
A0
A0
A0
A0
A0
A0
A0
A0
A0
ENDCHAR
STARTCHAR braceright
ENCODING 125
SWIDTH 506 0
DWIDTH 12 0
BBX 8 11 3 -1
BITMAP
D8
D8
18
18
1B
18
1B
18
D8
18
D8
ENDCHAR
STARTCHAR asciitilde
ENCODING 126
SWIDTH 450 0
DWIDTH 11 0
BBX 9 4 1 3
BITMAP
7080
8F00
7080
8F00
ENDCHAR
STARTCHAR uni00A0
ENCODING 160
SWIDTH 280 0
DWIDTH 7 0
BBX 1 1 0 0
BITMAP
00
ENDCHAR
STARTCHAR exclamdown
ENCODING 161
SWIDTH 196 0
DWIDTH 5 0
BBX 3 10 1 -3
BITMAP
A0
A0
00
A0
A0
A0
A0
A0
A0
A0
ENDCHAR
STARTCHAR cent
ENCODING 162
SWIDTH 305 0
DWIDTH 7 0
BBX 7 12 0 -1
BITMAP
18
18
3C
42
9E
A0
C0
A0
5E
3C
18
18
ENDCHAR
STARTCHAR sterling
ENCODING 163
SWIDTH 408 0
DWIDTH 10 0
BBX 9 10 0 0
BITMAP
7C00
BA00
0400
FE00
0000
FE00
5000
0000
FF80
FF80
ENDCHAR
STARTCHAR currency
ENCODING 164
SWIDTH 401 0
DWIDTH 10 0
BBX 8 8 1 0
BITMAP
46
BB
5C
5C
44
BA
C5
42
ENDCHAR
STARTCHAR yen
ENCODING 165
SWIDTH 423 0
DWIDTH 10 0
BBX 10 10 0 0
BITMAP
E140
5280
2D00
2D00
1600
0800
6D80
0C00
6D80
0C00
ENDCHAR
STARTCHAR brokenbar
ENCODING 166
SWIDTH 196 0
DWIDTH 5 0
BBX 3 10 1 0
BITMAP
A0
A0
A0
A0
00
00
A0
A0
A0
A0
ENDCHAR
STARTCHAR section
ENCODING 167
SWIDTH 322 0
DWIDTH 8 0
BBX 6 11 1 -1
BITMAP
7C
C8
B0
CC
B4
EC
98
74
0C
F4
78
ENDCHAR
STARTCHAR dieresis
ENCODING 168
SWIDTH 287 0
DWIDTH 7 0
BBX 5 2 1 12
BITMAP
D0
D8
ENDCHAR
STARTCHAR copyright
ENCODING 169
SWIDTH 493 0
DWIDTH 12 0
BBX 10 11 1 0
BITMAP
1E00
6100
4080
8C40
9240
A040
9240
8C40
4080
6100
1E00
ENDCHAR
STARTCHAR ordfeminine
ENCODING 170
SWIDTH 331 0
DWIDTH 8 0
BBX 6 4 1 6
BITMAP
68
78
78
FC
ENDCHAR
STARTCHAR guillemotleft
ENCODING 171
SWIDTH 298 0
DWIDTH 7 0
BBX 5 6 1 2
BITMAP
28
58
A8
D0
48
28
ENDCHAR
STARTCHAR logicalnot
ENCODING 172
SWIDTH 420 0
DWIDTH 10 0
BBX 8 5 1 1
BITMAP
FF
FF
00
03
03
ENDCHAR
STARTCHAR uni00AD
ENCODING 173
SWIDTH 326 0
DWIDTH 8 0
BBX 6 3 1 4
BITMAP
FC
00
FC
ENDCHAR
STARTCHAR registered
ENCODING 174
SWIDTH 493 0
DWIDTH 12 0
BBX 10 11 1 0
BITMAP
1E00
6100
4080
8040
9E40
9E40
9240
9240
4080
6100
1E00
ENDCHAR
STARTCHAR macron
ENCODING 175
SWIDTH 331 0
DWIDTH 8 0
BBX 6 1 1 12
BITMAP
FC
ENDCHAR
STARTCHAR degree
ENCODING 176
SWIDTH 298 0
DWIDTH 7 0
BBX 5 5 1 5
BITMAP
70
A8
D8
A8
70
ENDCHAR
STARTCHAR plusminus
ENCODING 177
SWIDTH 418 0
DWIDTH 10 0
BBX 8 10 1 0
BITMAP
18
18
DB
18
DB
18
18
00
FF
FF
ENDCHAR
STARTCHAR uni00B2
ENCODING 178
SWIDTH 233 0
DWIDTH 6 0
BBX 3 5 1 5
BITMAP
60
E0
60
E0
E0
ENDCHAR
STARTCHAR uni00B3
ENCODING 179
SWIDTH 228 0
DWIDTH 5 0
BBX 3 5 1 5
BITMAP
60
E0
20
E0
60
ENDCHAR
STARTCHAR acute
ENCODING 180
SWIDTH 195 0
DWIDTH 5 0
BBX 2 3 1 11
BITMAP
40
40
80
ENDCHAR
STARTCHAR uni00B5
ENCODING 181
SWIDTH 506 0
DWIDTH 12 0
BBX 11 13 1 -3
BITMAP
A500
A500
A500
A500
A500
A500
A500
A500
BAC0
BDE0
A000
A000
A000
ENDCHAR
STARTCHAR paragraph
ENCODING 182
SWIDTH 435 0
DWIDTH 10 0
BBX 8 10 1 0
BITMAP
7F
80
BF
CD
AD
6D
0D
0D
0D
0D
ENDCHAR
STARTCHAR periodcentered
ENCODING 183
SWIDTH 176 0
DWIDTH 4 0
BBX 2 2 1 4
BITMAP
C0
C0
ENDCHAR
STARTCHAR cedilla
ENCODING 184
SWIDTH 261 0
DWIDTH 6 0
BBX 4 4 1 -4
BITMAP
60
70
10
F0
ENDCHAR
STARTCHAR uni00B9
ENCODING 185
SWIDTH 218 0
DWIDTH 5 0
BBX 3 5 1 5
BITMAP
E0
E0
60
60
60
ENDCHAR
STARTCHAR ordmasculine
ENCODING 186
SWIDTH 335 0
DWIDTH 8 0
BBX 6 6 1 5
BITMAP
30
78
CC
CC
B4
78
ENDCHAR
STARTCHAR guillemotright
ENCODING 187
SWIDTH 298 0
DWIDTH 7 0
BBX 5 6 1 2
BITMAP
90
D8
90
28
D8
90
ENDCHAR
STARTCHAR onequarter
ENCODING 188
SWIDTH 429 0
DWIDTH 10 0
BBX 9 10 1 0
BITMAP
E300
E600
6600
6C00
6C00
1B00
1200
3600
2780
6780
ENDCHAR
STARTCHAR onehalf
ENCODING 189
SWIDTH 437 0
DWIDTH 10 0
BBX 9 10 1 0
BITMAP
E300
E600
6A00
6C00
7B00
1F80
3180
3300
6380
4380
ENDCHAR
STARTCHAR threequarters
ENCODING 190
SWIDTH 409 0
DWIDTH 10 0
BBX 8 10 1 0
BITMAP
40
E6
44
EC
58
1B
36
34
67
C7
ENDCHAR
STARTCHAR questiondown
ENCODING 191
SWIDTH 346 0
DWIDTH 8 0
BBX 6 10 1 -2
BITMAP
30
00
30
30
50
A0
A8
B4
44
38
ENDCHAR
STARTCHAR Agrave
ENCODING 192
SWIDTH 798 0
DWIDTH 19 0
BBX 19 26 0 0
BITMAP
070000
028000
014000
014000
00A000
000000
015000
01A800
02A800
02D800
035800
055400
05B400
06AC00
0AAA00
0B1A00
0D1600
151500
160D00
1AEA80
2BFA80
2C0580
35FD40
540340
5802C0
E802A0
ENDCHAR
STARTCHAR Aacute
ENCODING 193
SWIDTH 798 0
DWIDTH 19 0
BBX 19 26 0 0
BITMAP
001400
002800
002800
005000
007000
000000
015000
01A800
02A800
02D800
035800
055400
05B400
06AC00
0AAA00
0B1A00
0D1600
151500
160D00
1AEA80
2BFA80
2C0580
35FD40
540340
5802C0
E802A0
ENDCHAR
STARTCHAR Acircumflex
ENCODING 194
SWIDTH 798 0
DWIDTH 19 0
BBX 19 26 0 0
BITMAP
01E000
015000
02A800
052800
0F1400
000000
015000
01A800
02A800
02D800
035800
055400
05B400
06AC00
0AAA00
0B1A00
0D1600
151500
160D00
1AEA80
2BFA80
2C0580
35FD40
540340
5802C0
E802A0
ENDCHAR
STARTCHAR Atilde
ENCODING 195
SWIDTH 798 0
DWIDTH 19 0
BBX 19 24 0 0
BITMAP
038400
044400
043800
000000
015000
01A800
02A800
02D800
035800
055400
05B400
06AC00
0AAA00
0B1A00
0D1600
151500
160D00
1AEA80
2BFA80
2C0580
35FD40
540340
5802C0
E802A0
ENDCHAR
STARTCHAR Adieresis
ENCODING 196
SWIDTH 798 0
DWIDTH 19 0
BBX 19 26 0 0
BITMAP
070C00
089200
08A200
089200
070C00
000000
015000
01A800
02A800
02D800
035800
055400
05B400
06AC00
0AAA00
0B1A00
0D1600
151500
160D00
1AEA80
2BFA80
2C0580
35FD40
540340
5802C0
E802A0
ENDCHAR
STARTCHAR Aring
ENCODING 197
SWIDTH 798 0
DWIDTH 19 0
BBX 19 26 0 0
BITMAP
00E000
011000
011000
011000
00E000
000000
015000
01A800
02A800
02D800
035800
055400
05B400
06AC00
0AAA00
0B1A00
0D1600
151500
160D00
1AEA80
2BFA80
2C0580
35FD40
540340
5802C0
E802A0
ENDCHAR
STARTCHAR AE
ENCODING 198
SWIDTH 1078 0
DWIDTH 26 0
BBX 25 20 0 0
BITMAP
002DFF80
002A0000
006BFF80
005A0000
009BFF80
00DA0000
01560000
01560000
02B6FF00
02D60000
0555FF00
0595FF00
0A8D0000
0B0D0000
15ED0000
160B0000
2AEB7F80
35FB0000
540B7F80
E80AFF80
ENDCHAR
STARTCHAR Ccedilla
ENCODING 199
SWIDTH 776 0
DWIDTH 19 0
BBX 17 26 1 -6
BITMAP
03F800
0DF600
160D80
29F200
560D00
680200
A80000
D00000
D00000
D00000
D00000
D00000
D00000
A80000
680200
560C00
29F300
160580
0DFE00
03F800
008000
010000
01C000
012000
002000
03C000
ENDCHAR
STARTCHAR Egrave
ENCODING 200
SWIDTH 677 0
DWIDTH 16 0
BBX 15 26 1 0
BITMAP
0380
0280
0140
0140
00A0
0000
B7FE
B000
B7FE
B000
B7FE
B000
B000
B000
B7F8
B000
B7F8
B7F8
B000
B000
B000
B000
B7FE
B000
B7FE
B7FE
ENDCHAR
STARTCHAR Eacute
ENCODING 201
SWIDTH 677 0
DWIDTH 16 0
BBX 15 26 1 0
BITMAP
00A0
0140
0140
0280
0700
0000
B7FE
B000
B7FE
B000
B7FE
B000
B000
B000
B7F8
B000
B7F8
B7F8
B000
B000
B000
B000
B7FE
B000
B7FE
B7FE
ENDCHAR
STARTCHAR Ecircumflex
ENCODING 202
SWIDTH 677 0
DWIDTH 16 0
BBX 15 26 1 0
BITMAP
0280
0520
05A0
0A50
1428
0000
B7FE
B000
B7FE
B000
B7FE
B000
B000
B000
B7F8
B000
B7F8
B7F8
B000
B000
B000
B000
B7FE
B000
B7FE
B7FE
ENDCHAR
STARTCHAR Edieresis
ENCODING 203
SWIDTH 677 0
DWIDTH 16 0
BBX 15 26 1 0
BITMAP
0C38
1244
1144
1244
0C38
0000
B7FE
B000
B7FE
B000
B7FE
B000
B000
B000
B7F8
B000
B7F8
B7F8
B000
B000
B000
B000
B7FE
B000
B7FE
B7FE
ENDCHAR
STARTCHAR Igrave
ENCODING 204
SWIDTH 262 0
DWIDTH 6 0
BBX 6 26 -1 0
BITMAP
A0
60
50
28
28
00
2C
2C
2C
2C
2C
2C
2C
2C
2C
2C
2C
2C
2C
2C
2C
2C
2C
2C
2C
2C
ENDCHAR
STARTCHAR Iacute
ENCODING 205
SWIDTH 262 0
DWIDTH 6 0
BBX 6 26 1 0
BITMAP
1C
14
28
30
50
00
B0
B0
B0
B0
B0
B0
B0
B0
B0
B0
B0
B0
B0
B0
B0
B0
B0
B0
B0
B0
ENDCHAR
STARTCHAR Icircumflex
ENCODING 206
SWIDTH 262 0
DWIDTH 6 0
BBX 10 26 -2 0
BITMAP
1400
2A00
2D00
5280
A140
0000
1600
1600
1600
1600
1600
1600
1600
1600
1600
1600
1600
1600
1600
1600
1600
1600
1600
1600
1600
1600
ENDCHAR
STARTCHAR Idieresis
ENCODING 207
SWIDTH 262 0
DWIDTH 6 0
BBX 11 26 -2 0
BITMAP
61C0
9220
9220
9220
61C0
0000
1600
1600
1600
1600
1600
1600
1600
1600
1600
1600
1600
1600
1600
1600
1600
1600
1600
1600
1600
1600
ENDCHAR
STARTCHAR Eth
ENCODING 208
SWIDTH 856 0
DWIDTH 21 0
BBX 20 20 0 0
BITMAP
2DF800
2C0600
2DF980
2C0640
2DF940
2C04A0
2C02A0
000150
FFC150
0000D0
FFC0D0
FFC0D0
000150
2C0160
2C02A0
2C04C0
2DF940
2C0780
2DF600
2DF800
ENDCHAR
STARTCHAR Ntilde
ENCODING 209
SWIDTH 796 0
DWIDTH 19 0
BBX 17 24 1 0
BITMAP
070800
088800
087000
000000
B00680
B40680
B40680
B20680
B60680
B50680
B28680
B68680
B54680
B2A680
B2A680
B15680
B0B680
B0A680
B05680
B03680
B02680
B01680
B00E80
B00680
ENDCHAR
STARTCHAR Ograve
ENCODING 210
SWIDTH 894 0
DWIDTH 21 0
BBX 20 26 1 0
BITMAP
038000
028000
014000
00C000
00A000
000000
03F800
0DFE00
160780
29F180
560CC0
6802A0
A80160
D00150
D000D0
D000D0
D000D0
D000D0
D00150
A80160
6802A0
5604C0
29F9C0
160780
0DFE00
03F800
ENDCHAR
STARTCHAR Oacute
ENCODING 211
SWIDTH 894 0
DWIDTH 21 0
BBX 20 26 1 0
BITMAP
001C00
002800
005000
005000
00A000
000000
03F800
0DFE00
160780
29F180
560CC0
6802A0
A80160
D00150
D000D0
D000D0
D000D0
D000D0
D00150
A80160
6802A0
5604C0
29F9C0
160780
0DFE00
03F800
ENDCHAR
STARTCHAR Ocircumflex
ENCODING 212
SWIDTH 894 0
DWIDTH 21 0
BBX 20 26 1 0
BITMAP
00A000
015000
02A800
052800
0F1400
000000
03F800
0DFE00
160780
29F180
560CC0
6802A0
A80160
D00150
D000D0
D000D0
D000D0
D000D0
D00150
A80160
6802A0
5604C0
29F9C0
160780
0DFE00
03F800
ENDCHAR
STARTCHAR Otilde
ENCODING 213
SWIDTH 894 0
DWIDTH 21 0
BBX 20 24 1 0
BITMAP
038400
044400
043800
000000
03F800
0DFE00
160780
29F180
560CC0
6802A0
A80160
D00150
D000D0
D000D0
D000D0
D000D0
D00150
A80160
6802A0
5604C0
29F9C0
160780
0DFE00
03F800
ENDCHAR
STARTCHAR Odieresis
ENCODING 214
SWIDTH 894 0
DWIDTH 21 0
BBX 20 26 1 0
BITMAP
070C00
089200
08A200
089200
070C00
000000
03F800
0DFE00
160780
29F180
560CC0
6802A0
A80160
D00150
D000D0
D000D0
D000D0
D000D0
D00150
A80160
6802A0
5604C0
29F9C0
160780
0DFE00
03F800
ENDCHAR
STARTCHAR multiply
ENCODING 215
SWIDTH 370 0
DWIDTH 9 0
BBX 7 7 1 1
BITMAP
44
AA
54
28
54
AA
44
ENDCHAR
STARTCHAR Oslash
ENCODING 216
SWIDTH 894 0
DWIDTH 21 0
BBX 20 20 1 0
BITMAP
03FD00
0DFAE0
140340
29F580
560AA0
681520
A81A60
D02AD0
D054D0
D168D0
D2A8D0
D540D0
D58150
AA8160
5502A0
5A04C0
2CF980
540780
69FE00
0BF800
ENDCHAR
STARTCHAR Ugrave
ENCODING 217
SWIDTH 702 0
DWIDTH 17 0
BBX 15 26 1 0
BITMAP
1400
0A00
0A00
0500
0780
0000
B01A
B01A
B01A
B01A
B01A
B01A
B01A
B01A
B01A
B01A
B01A
B01A
B01A
B01A
A82A
686C
5794
2828
17D0
0FE0
ENDCHAR
STARTCHAR Uacute
ENCODING 218
SWIDTH 702 0
DWIDTH 17 0
BBX 15 26 1 0
BITMAP
0050
00A0
00C0
0140
0280
0000
B01A
B01A
B01A
B01A
B01A
B01A
B01A
B01A
B01A
B01A
B01A
B01A
B01A
B01A
A82A
686C
5794
2828
17D0
0FE0
ENDCHAR
STARTCHAR Ucircumflex
ENCODING 219
SWIDTH 702 0
DWIDTH 17 0
BBX 15 26 1 0
BITMAP
0780
0540
0AC0
14A0
2850
0000
B01A
B01A
B01A
B01A
B01A
B01A
B01A
B01A
B01A
B01A
B01A
B01A
B01A
B01A
A82A
686C
5794
2828
17D0
0FE0
ENDCHAR
STARTCHAR Udieresis
ENCODING 220
SWIDTH 702 0
DWIDTH 17 0
BBX 15 26 1 0
BITMAP
1C70
2488
2288
2488
1870
0000
B01A
B01A
B01A
B01A
B01A
B01A
B01A
B01A
B01A
B01A
B01A
B01A
B01A
B01A
A82A
686C
5794
2828
17D0
0FE0
ENDCHAR
STARTCHAR Yacute
ENCODING 221
SWIDTH 769 0
DWIDTH 18 0
BBX 18 26 0 0
BITMAP
003800
002800
005000
006000
00A000
000000
E80540
540680
2A0A80
2A1500
151600
0B2A00
0AB400
055400
034800
02A800
015000
000000
016000
016000
016000
016000
016000
016000
016000
016000
ENDCHAR
STARTCHAR Thorn
ENCODING 222
SWIDTH 743 0
DWIDTH 18 0
BBX 16 20 1 0
BITMAP
B000
B000
B000
B000
B7F8
B004
B7FA
B7F5
B00D
B00B
B00B
B7F5
B005
B7FA
B004
B7F8
B000
B000
B000
B000
ENDCHAR
STARTCHAR germandbls
ENCODING 223
SWIDTH 424 0
DWIDTH 10 0
BBX 8 10 1 0
BITMAP
7E
81
BD
C3
CF
CD
C3
C3
DD
DE
ENDCHAR
STARTCHAR agrave
ENCODING 224
SWIDTH 414 0
DWIDTH 10 0
BBX 10 14 0 0
BITMAP
1000
0800
0C00
0000
1C00
1600
1A00
2D00
2D00
3300
5E80
5280
7F80
A140
ENDCHAR
STARTCHAR aacute
ENCODING 225
SWIDTH 414 0
DWIDTH 10 0
BBX 10 14 0 0
BITMAP
0200
0200
0400
0000
1C00
1600
1A00
2D00
2D00
3300
5E80
5280
7F80
A140
ENDCHAR
STARTCHAR acircumflex
ENCODING 226
SWIDTH 414 0
DWIDTH 10 0
BBX 10 14 0 0
BITMAP
0800
0C00
1200
2000
1C00
1600
1A00
2D00
2D00
3300
5E80
5280
7F80
A140
ENDCHAR
STARTCHAR atilde
ENCODING 227
SWIDTH 414 0
DWIDTH 10 0
BBX 10 13 0 0
BITMAP
1900
2600
0000
1C00
1600
1A00
2D00
2D00
3300
5E80
5280
7F80
A140
ENDCHAR
STARTCHAR adieresis
ENCODING 228
SWIDTH 414 0
DWIDTH 10 0
BBX 10 14 0 0
BITMAP
1200
1200
0000
0000
1C00
1600
1A00
2D00
2D00
3300
5E80
5280
7F80
A140
ENDCHAR
STARTCHAR aring
ENCODING 229
SWIDTH 414 0
DWIDTH 10 0
BBX 10 14 0 0
BITMAP
0C00
0A00
0C00
0000
1C00
1600
1A00
2D00
2D00
3300
5E80
5280
7F80
A140
ENDCHAR
STARTCHAR ae
ENCODING 230
SWIDTH 593 0
DWIDTH 14 0
BBX 14 10 0 0
BITMAP
05FC
0700
0AFC
0E80
16F8
2AF8
2A80
5280
5EFC
A1FC
ENDCHAR
STARTCHAR ccedilla
ENCODING 231
SWIDTH 446 0
DWIDTH 11 0
BBX 9 14 1 -4
BITMAP
3F00
5E80
A100
C000
C000
C000
C000
A100
5E80
3F00
0800
1C00
0200
1C00
ENDCHAR
STARTCHAR egrave
ENCODING 232
SWIDTH 363 0
DWIDTH 9 0
BBX 7 14 1 0
BITMAP
20
10
10
00
BE
C0
BE
C0
BE
BE
C0
C0
BE
BE
ENDCHAR
STARTCHAR eacute
ENCODING 233
SWIDTH 363 0
DWIDTH 9 0
BBX 7 14 1 0
BITMAP
04
04
08
00
BE
C0
BE
C0
BE
BE
C0
C0
BE
BE
ENDCHAR
STARTCHAR ecircumflex
ENCODING 234
SWIDTH 363 0
DWIDTH 9 0
BBX 7 14 1 0
BITMAP
10
18
64
00
BE
C0
BE
C0
BE
BE
C0
C0
BE
BE
ENDCHAR
STARTCHAR edieresis
ENCODING 235
SWIDTH 363 0
DWIDTH 9 0
BBX 7 14 1 0
BITMAP
24
24
00
00
BE
C0
BE
C0
BE
BE
C0
C0
BE
BE
ENDCHAR
STARTCHAR igrave
ENCODING 236
SWIDTH 176 0
DWIDTH 4 0
BBX 3 14 0 0
BITMAP
80
40
60
00
60
60
60
60
60
60
60
60
60
60
ENDCHAR
STARTCHAR iacute
ENCODING 237
SWIDTH 176 0
DWIDTH 4 0
BBX 3 14 1 0
BITMAP
20
20
40
00
C0
C0
C0
C0
C0
C0
C0
C0
C0
C0
ENDCHAR
STARTCHAR icircumflex
ENCODING 238
SWIDTH 176 0
DWIDTH 4 0
BBX 4 14 0 0
BITMAP
40
60
90
00
60
60
60
60
60
60
60
60
60
60
ENDCHAR
STARTCHAR idieresis
ENCODING 239
SWIDTH 176 0
DWIDTH 4 0
BBX 4 14 0 0
BITMAP
90
90
00
00
60
60
60
60
60
60
60
60
60
60
ENDCHAR
STARTCHAR eth
ENCODING 240
SWIDTH 455 0
DWIDTH 11 0
BBX 10 10 0 0
BITMAP
5F00
5080
5E40
5140
00C0
F8C0
50C0
5140
5E80
5F00
ENDCHAR
STARTCHAR ntilde
ENCODING 241
SWIDTH 444 0
DWIDTH 11 0
BBX 9 13 1 0
BITMAP
3200
4C00
0000
A280
A280
D280
AA80
EA80
D680
CA80
C680
C680
C280
ENDCHAR
STARTCHAR ograve
ENCODING 242
SWIDTH 494 0
DWIDTH 12 0
BBX 10 14 1 0
BITMAP
1000
0800
0800
0000
3E00
5F80
A140
C140
C0C0
C0C0
C140
A140
5D80
3E00
ENDCHAR
STARTCHAR oacute
ENCODING 243
SWIDTH 494 0
DWIDTH 12 0
BBX 10 14 1 0
BITMAP
0200
0400
0400
0000
3E00
5F80
A140
C140
C0C0
C0C0
C140
A140
5D80
3E00
ENDCHAR
STARTCHAR ocircumflex
ENCODING 244
SWIDTH 494 0
DWIDTH 12 0
BBX 10 14 1 0
BITMAP
0800
1400
3200
0000
3E00
5F80
A140
C140
C0C0
C0C0
C140
A140
5D80
3E00
ENDCHAR
STARTCHAR otilde
ENCODING 245
SWIDTH 494 0
DWIDTH 12 0
BBX 10 13 1 0
BITMAP
1900
2600
0000
3E00
5F80
A140
C140
C0C0
C0C0
C140
A140
5D80
3E00
ENDCHAR
STARTCHAR odieresis
ENCODING 246
SWIDTH 494 0
DWIDTH 12 0
BBX 10 14 1 0
BITMAP
1200
1200
0000
0000
3E00
5F80
A140
C140
C0C0
C0C0
C140
A140
5D80
3E00
ENDCHAR
STARTCHAR divide
ENCODING 247
SWIDTH 418 0
DWIDTH 10 0
BBX 8 9 1 0
BITMAP
18
18
18
FF
00
FF
00
18
18
ENDCHAR
STARTCHAR oslash
ENCODING 248
SWIDTH 494 0
DWIDTH 12 0
BBX 10 10 1 0
BITMAP
1E80
7C80
A140
C340
C4C0
C8C0
D140
A180
4D80
5E00
ENDCHAR
STARTCHAR ugrave
ENCODING 249
SWIDTH 400 0
DWIDTH 10 0
BBX 8 14 1 0
BITMAP
20
20
10
00
C5
C5
C5
C5
C5
C5
C5
A5
7A
3C
ENDCHAR
STARTCHAR uacute
ENCODING 250
SWIDTH 400 0
DWIDTH 10 0
BBX 8 14 1 0
BITMAP
04
08
18
00
C5
C5
C5
C5
C5
C5
C5
A5
7A
3C
ENDCHAR
STARTCHAR ucircumflex
ENCODING 251
SWIDTH 400 0
DWIDTH 10 0
BBX 8 14 1 0
BITMAP
10
28
64
00
C5
C5
C5
C5
C5
C5
C5
A5
7A
3C
ENDCHAR
STARTCHAR udieresis
ENCODING 252
SWIDTH 400 0
DWIDTH 10 0
BBX 8 14 1 0
BITMAP
24
2C
00
00
C5
C5
C5
C5
C5
C5
C5
A5
7A
3C
ENDCHAR
STARTCHAR yacute
ENCODING 253
SWIDTH 422 0
DWIDTH 10 0
BBX 10 14 0 0
BITMAP
0200
0400
0400
0000
A140
5280
2D00
2D00
1600
0800
0C00
0C00
0C00
0C00
ENDCHAR
STARTCHAR thorn
ENCODING 254
SWIDTH 412 0
DWIDTH 10 0
BBX 8 10 1 0
BITMAP
C0
C0
BE
BD
C3
C3
BD
BE
C0
C0
ENDCHAR
STARTCHAR ydieresis
ENCODING 255
SWIDTH 422 0
DWIDTH 10 0
BBX 10 14 0 0
BITMAP
1200
1200
0000
0000
A140
5280
2D00
2D00
1600
0800
0C00
0C00
0C00
0C00
ENDCHAR
STARTCHAR Edotaccent
ENCODING 278
SWIDTH 677 0
DWIDTH 16 0
BBX 15 24 1 0
BITMAP
0180
0180
0000
0000
B7FE
B000
B7FE
B000
B7FE
B000
B000
B000
B7F8
B000
B7F8
B7F8
B000
B000
B000
B000
B7FE
B000
B7FE
B7FE
ENDCHAR
STARTCHAR edotaccent
ENCODING 279
SWIDTH 363 0
DWIDTH 9 0
BBX 7 14 1 0
BITMAP
18
18
00
00
BE
C0
BE
C0
BE
BE
C0
C0
BE
BE
ENDCHAR
STARTCHAR dotlessi
ENCODING 305
SWIDTH 176 0
DWIDTH 4 0
BBX 2 10 1 0
BITMAP
C0
C0
C0
C0
C0
C0
C0
C0
C0
C0
ENDCHAR
STARTCHAR OE
ENCODING 338
SWIDTH 1221 0
DWIDTH 29 0
BBX 28 20 1 0
BITMAP
03F7FFF0
0C074000
11F77FF0
26074000
49F77FF0
56074000
A8074000
A8074000
D0077FC0
D0074000
D0077FC0
D0077FC0
D0074000
A8074000
68074000
56074000
29F77FF0
16074000
0DF77FF0
03F7FFF0
ENDCHAR
STARTCHAR oe
ENCODING 339
SWIDTH 637 0
DWIDTH 15 0
BBX 14 10 1 0
BITMAP
3EFC
4280
9EFC
A280
C2F8
C2F8
C280
A280
5EFC
1EFC
ENDCHAR
STARTCHAR Wcircumflex
ENCODING 372
SWIDTH 972 0
DWIDTH 23 0
BBX 23 26 0 0
BITMAP
007800
005400
00AA00
014A00
03C500
000000
A82C1A
68342A
58542C
585834
545A34
346A54
2CAA58
2CB668
2AB668
1AD5A8
16D5B0
166D50
156B50
0DAAD0
0D26A0
0B46A0
0AC5A0
06C540
068340
058340
ENDCHAR
STARTCHAR wcircumflex
ENCODING 373
SWIDTH 521 0
DWIDTH 13 0
BBX 12 14 0 0
BITMAP
0200
0500
0900
0000
A530
A550
6750
5B50
5B60
3AA0
36A0
2DC0
2D40
1940
ENDCHAR
STARTCHAR Ycircumflex
ENCODING 374
SWIDTH 769 0
DWIDTH 18 0
BBX 18 26 0 0
BITMAP
014000
02A000
02D000
052800
0A1400
000000
E80540
540680
2A0A80
2A1500
151600
0B2A00
0AB400
055400
034800
02A800
015000
000000
016000
016000
016000
016000
016000
016000
016000
016000
ENDCHAR
STARTCHAR ycircumflex
ENCODING 375
SWIDTH 422 0
DWIDTH 10 0
BBX 10 14 0 0
BITMAP
0800
0C00
1200
2000
A140
5280
2D00
2D00
1600
0800
0C00
0C00
0C00
0C00
ENDCHAR
STARTCHAR Ydieresis
ENCODING 376
SWIDTH 769 0
DWIDTH 18 0
BBX 18 26 0 0
BITMAP
061C00
092200
092200
092200
061C00
000000
E80540
540680
2A0A80
2A1500
151600
0B2A00
0AB400
055400
034800
02A800
015000
000000
016000
016000
016000
016000
016000
016000
016000
016000
ENDCHAR
STARTCHAR circumflex
ENCODING 710
SWIDTH 298 0
DWIDTH 7 0
BBX 5 3 1 11
BITMAP
20
50
C8
ENDCHAR
STARTCHAR dotaccent
ENCODING 729
SWIDTH 212 0
DWIDTH 5 0
BBX 3 2 1 12
BITMAP
E0
40
ENDCHAR
STARTCHAR ring
ENCODING 730
SWIDTH 212 0
DWIDTH 5 0
BBX 3 3 1 11
BITMAP
40
A0
40
ENDCHAR
STARTCHAR tilde
ENCODING 732
SWIDTH 329 0
DWIDTH 8 0
BBX 6 2 1 11
BITMAP
64
98
ENDCHAR
STARTCHAR gravecomb
ENCODING 768
SWIDTH 0 0
DWIDTH 0 0
BBX 2 3 1 11
BITMAP
80
40
40
ENDCHAR
STARTCHAR acutecomb
ENCODING 769
SWIDTH 0 0
DWIDTH 0 0
BBX 2 3 1 11
BITMAP
40
40
80
ENDCHAR
STARTCHAR uni0302
ENCODING 770
SWIDTH 0 0
DWIDTH 0 0
BBX 5 3 1 11
BITMAP
20
50
C8
ENDCHAR
STARTCHAR tildecomb
ENCODING 771
SWIDTH 0 0
DWIDTH 0 0
BBX 6 2 1 11
BITMAP
64
98
ENDCHAR
STARTCHAR uni0307
ENCODING 775
SWIDTH 0 0
DWIDTH 0 0
BBX 3 2 1 12
BITMAP
E0
40
ENDCHAR
STARTCHAR uni0308
ENCODING 776
SWIDTH 0 0
DWIDTH 0 0
BBX 5 2 1 12
BITMAP
D0
D8
ENDCHAR
STARTCHAR uni030A
ENCODING 778
SWIDTH 0 0
DWIDTH 0 0
BBX 3 3 1 11
BITMAP
40
A0
40
ENDCHAR
STARTCHAR uni0327
ENCODING 807
SWIDTH 0 0
DWIDTH 0 0
BBX 4 4 1 -4
BITMAP
60
70
10
F0
ENDCHAR
STARTCHAR Wgrave
ENCODING 7808
SWIDTH 972 0
DWIDTH 23 0
BBX 23 26 0 0
BITMAP
005000
003000
002800
001400
001C00
000000
A82C1A
68342A
58542C
585834
545A34
346A54
2CAA58
2CB668
2AB668
1AD5A8
16D5B0
166D50
156B50
0DAAD0
0D26A0
0B46A0
0AC5A0
06C540
068340
058340
ENDCHAR
STARTCHAR wgrave
ENCODING 7809
SWIDTH 521 0
DWIDTH 13 0
BBX 12 14 0 0
BITMAP
0400
0200
0200
0000
A530
A550
6750
5B50
5B60
3AA0
36A0
2DC0
2D40
1940
ENDCHAR
STARTCHAR Wacute
ENCODING 7810
SWIDTH 972 0
DWIDTH 23 0
BBX 23 26 0 0
BITMAP
001C00
001400
002800
003000
005000
000000
A82C1A
68342A
58542C
585834
545A34
346A54
2CAA58
2CB668
2AB668
1AD5A8
16D5B0
166D50
156B50
0DAAD0
0D26A0
0B46A0
0AC5A0
06C540
068340
058340
ENDCHAR
STARTCHAR wacute
ENCODING 7811
SWIDTH 521 0
DWIDTH 13 0
BBX 12 14 0 0
BITMAP
0200
0200
0400
0000
A530
A550
6750
5B50
5B60
3AA0
36A0
2DC0
2D40
1940
ENDCHAR
STARTCHAR Wdieresis
ENCODING 7812
SWIDTH 972 0
DWIDTH 23 0
BBX 23 26 0 0
BITMAP
01C300
022480
022880
022480
01C300
000000
A82C1A
68342A
58542C
585834
545A34
346A54
2CAA58
2CB668
2AB668
1AD5A8
16D5B0
166D50
156B50
0DAAD0
0D26A0
0B46A0
0AC5A0
06C540
068340
058340
ENDCHAR
STARTCHAR wdieresis
ENCODING 7813
SWIDTH 521 0
DWIDTH 13 0
BBX 12 14 0 0
BITMAP
0900
0D80
0000
0000
A530
A550
6750
5B50
5B60
3AA0
36A0
2DC0
2D40
1940
ENDCHAR
STARTCHAR uni1E9E
ENCODING 7838
SWIDTH 784 0
DWIDTH 19 0
BBX 17 20 1 0
BITMAP
B7FE00
B00000
B7FE00
B00000
B7FE00
B02C00
B05400
B05800
B0AC00
B0D200
B15500
B3AA80
B00680
B00680
B00680
B00680
B3FA80
B00500
B3FA00
B3FC00
ENDCHAR
STARTCHAR Ygrave
ENCODING 7922
SWIDTH 769 0
DWIDTH 18 0
BBX 18 26 0 0
BITMAP
038000
014000
00A000
00A000
005000
000000
E80540
540680
2A0A80
2A1500
151600
0B2A00
0AB400
055400
034800
02A800
015000
000000
016000
016000
016000
016000
016000
016000
016000
016000
ENDCHAR
STARTCHAR ygrave
ENCODING 7923
SWIDTH 422 0
DWIDTH 10 0
BBX 10 14 0 0
BITMAP
0800
0800
0400
0000
A140
5280
2D00
2D00
1600
0800
0C00
0C00
0C00
0C00
ENDCHAR
STARTCHAR endash
ENCODING 8211
SWIDTH 507 0
DWIDTH 12 0
BBX 10 3 1 4
BITMAP
FFC0
0000
FFC0
ENDCHAR
STARTCHAR emdash
ENCODING 8212
SWIDTH 552 0
DWIDTH 13 0
BBX 11 3 1 4
BITMAP
FFE0
0000
FFE0
ENDCHAR
STARTCHAR quoteleft
ENCODING 8216
SWIDTH 146 0
DWIDTH 4 0
BBX 2 3 1 7
BITMAP
80
C0
C0
ENDCHAR
STARTCHAR quoteright
ENCODING 8217
SWIDTH 146 0
DWIDTH 4 0
BBX 2 3 1 7
BITMAP
C0
C0
40
ENDCHAR
STARTCHAR quotesinglbase
ENCODING 8218
SWIDTH 146 0
DWIDTH 4 0
BBX 2 3 1 -3
BITMAP
C0
C0
40
ENDCHAR
STARTCHAR quotedblleft
ENCODING 8220
SWIDTH 297 0
DWIDTH 7 0
BBX 6 3 1 7
BITMAP
90
D4
D4
ENDCHAR
STARTCHAR quotedblright
ENCODING 8221
SWIDTH 297 0
DWIDTH 7 0
BBX 6 3 1 7
BITMAP
D4
D4
44
ENDCHAR
STARTCHAR quotedblbase
ENCODING 8222
SWIDTH 297 0
DWIDTH 7 0
BBX 6 3 1 -3
BITMAP
D4
D4
44
ENDCHAR
STARTCHAR bullet
ENCODING 8226
SWIDTH 302 0
DWIDTH 7 0
BBX 5 5 1 2
BITMAP
70
88
88
88
70
ENDCHAR
STARTCHAR ellipsis
ENCODING 8230
SWIDTH 528 0
DWIDTH 13 0
BBX 11 2 1 0
BITMAP
CAA0
CAA0
ENDCHAR
STARTCHAR guilsinglleft
ENCODING 8249
SWIDTH 178 0
DWIDTH 4 0
BBX 2 6 1 2
BITMAP
40
40
C0
80
40
40
ENDCHAR
STARTCHAR guilsinglright
ENCODING 8250
SWIDTH 178 0
DWIDTH 4 0
BBX 2 6 1 2
BITMAP
80
C0
80
40
C0
80
ENDCHAR
STARTCHAR fraction
ENCODING 8260
SWIDTH 362 0
DWIDTH 9 0
BBX 8 10 0 0
BITMAP
07
05
0A
0A
14
18
28
30
50
E0
ENDCHAR
STARTCHAR uni2074
ENCODING 8308
SWIDTH 204 0
DWIDTH 5 0
BBX 3 5 1 5
BITMAP
60
C0
80
A0
A0
ENDCHAR
STARTCHAR Euro
ENCODING 8364
SWIDTH 462 0
DWIDTH 11 0
BBX 10 10 0 0
BITMAP
0F80
1740
3880
4000
FC00
FC00
4000
3880
1740
0F80
ENDCHAR
STARTCHAR trademark
ENCODING 8482
SWIDTH 461 0
DWIDTH 11 0
BBX 10 5 0 5
BITMAP
F640
06C0
2540
2440
2440
ENDCHAR
STARTCHAR minus
ENCODING 8722
SWIDTH 420 0
DWIDTH 10 0
BBX 8 3 1 4
BITMAP
FF
00
FF
ENDCHAR
STARTCHAR uni2215
ENCODING 8725
SWIDTH 278 0
DWIDTH 7 0
BBX 5 10 1 0
BITMAP
18
18
28
28
50
50
60
A0
A0
C0
ENDCHAR
STARTCHAR .notdef
ENCODING -1
SWIDTH 500 0
DWIDTH 12 0
BBX 10 27 1 -5
BITMAP
FFC0
8040
8040
8040
8040
8040
8040
8040
8040
8040
8040
8040
8040
8040
8040
8040
8040
8040
8040
8040
8040
8040
8040
8040
8040
8040
FFC0
ENDCHAR
STARTCHAR NULL
ENCODING -1
SWIDTH 600 0
DWIDTH 14 0
BBX 1 1 0 0
BITMAP
00
ENDCHAR
STARTCHAR acutecomb.case
ENCODING -1
SWIDTH 0 0
DWIDTH 0 0
BBX 6 5 1 21
BITMAP
14
28
30
50
A0
ENDCHAR
STARTCHAR ampersand.case
ENCODING -1
SWIDTH 797 0
DWIDTH 19 0
BBX 17 20 1 0
BITMAP
07C000
0BF000
143000
1BA800
2A5800
2C5800
2AA800
167000
157000
2AC000
498000
954500
AAAA80
D15480
D15100
D0AA00
AF5400
70AA00
2F2A00
1FD500
ENDCHAR
STARTCHAR asciicircum.case
ENCODING -1
SWIDTH 540 0
DWIDTH 13 0
BBX 12 10 0 10
BITMAP
0200
0500
0500
0A80
0D80
1540
28A0
28A0
5050
F070
ENDCHAR
STARTCHAR asciitilde.case
ENCODING -1
SWIDTH 640 0
DWIDTH 15 0
BBX 13 5 1 8
BITMAP
7E08
FDF0
8308
7EF0
81F8
ENDCHAR
STARTCHAR asterisk.case
ENCODING -1
SWIDTH 482 0
DWIDTH 12 0
BBX 9 9 1 11
BITMAP
1400
1400
5480
2300
E180
0000
2200
5D00
3200
ENDCHAR
STARTCHAR at.case
ENCODING -1
SWIDTH 915 0
DWIDTH 22 0
BBX 20 20 1 0
BITMAP
01FC00
07FB00
160680
280140
3000A0
50FA60
63FA50
A50A30
A60A30
A60A30
A60A30
A60A50
A50A50
63EB90
50F420
300380
280000
1E0400
07FA00
01FC00
ENDCHAR
STARTCHAR backslash.case
ENCODING -1
SWIDTH 504 0
DWIDTH 12 0
BBX 12 23 0 -1
BITMAP
B000
A800
6800
5800
5400
3400
2C00
2A00
1A00
1600
1500
0D00
0B00
0A80
0680
0580
0540
0340
02C0
02A0
01A0
0160
01D0
ENDCHAR
STARTCHAR bar.case
ENCODING -1
SWIDTH 262 0
DWIDTH 6 0
BBX 4 23 1 -1
BITMAP
B0
B0
B0
B0
B0
B0
B0
B0
B0
B0
B0
B0
B0
B0
B0
B0
B0
B0
B0
B0
B0
B0
B0
ENDCHAR
STARTCHAR braceleft.case
ENCODING -1
SWIDTH 504 0
DWIDTH 12 0
BBX 10 23 1 -2
BITMAP
16C0
16C0
1600
16C0
1600
1600
1600
1600
1600
D600
1600
D600
D600
1600
1600
1600
1600
1600
1600
16C0
16C0
1600
16C0
ENDCHAR
STARTCHAR braceright.case
ENCODING -1
SWIDTH 506 0
DWIDTH 12 0
BBX 10 23 1 -2
BITMAP
D600
1600
D600
D600
1600
1600
1600
1600
1600
1600
16C0
16C0
1600
16C0
1600
1600
1600
1600
1600
D600
1600
D600
D600
ENDCHAR
STARTCHAR bracketleft.case
ENCODING -1
SWIDTH 453 0
DWIDTH 11 0
BBX 9 23 1 -2
BITMAP
B780
B780
B000
B780
B000
B000
B000
B000
B000
B000
B000
B000
B000
B000
B000
B000
B000
B000
B000
B780
B780
B000
B780
ENDCHAR
STARTCHAR bracketright.case
ENCODING -1
SWIDTH 453 0
DWIDTH 11 0
BBX 9 23 1 -2
BITMAP
F680
0680
F680
F680
0680
0680
0680
0680
0680
0680
0680
0680
0680
0680
0680
0680
0680
0680
0680
F680
0680
F680
F680
ENDCHAR
STARTCHAR brokenbar.case
ENCODING -1
SWIDTH 262 0
DWIDTH 6 0
BBX 4 23 1 0
BITMAP
B0
B0
B0
B0
B0
B0
B0
B0
B0
B0
B0
00
00
B0
B0
B0
B0
B0
B0
B0
B0
B0
B0
ENDCHAR
STARTCHAR bullet.case
ENCODING -1
SWIDTH 503 0
DWIDTH 12 0
BBX 10 10 1 5
BITMAP
1E00
2100
5E80
A140
A140
A140
A140
5E80
2100
1E00
ENDCHAR
STARTCHAR uni0327.case
ENCODING -1
SWIDTH 0 0
DWIDTH 0 0
BBX 6 6 1 -6
BITMAP
20
20
78
44
84
78
ENDCHAR
STARTCHAR cent.case
ENCODING -1
SWIDTH 577 0
DWIDTH 14 0
BBX 12 23 1 -1
BITMAP
0300
0300
0300
0300
0000
0FC0
17B0
3840
57A0
6840
B000
B000
B000
B000
5840
5FA0
27D0
1020
0FC0
0300
0300
0300
0300
ENDCHAR
STARTCHAR uni0302.case
ENCODING -1
SWIDTH 0 0
DWIDTH 0 0
BBX 10 5 1 21
BITMAP
1E00
1500
2A80
5280
F140
ENDCHAR
STARTCHAR colon.case
ENCODING -1
SWIDTH 262 0
DWIDTH 6 0
BBX 4 13 1 0
BITMAP
B0
B0
B0
B0
00
00
00
00
00
B0
B0
B0
B0
ENDCHAR
STARTCHAR comma.case
ENCODING -1
SWIDTH 338 0
DWIDTH 8 0
BBX 6 6 1 -2
BITMAP
34
54
58
68
A8
B0
ENDCHAR
STARTCHAR copyright.case
ENCODING -1
SWIDTH 895 0
DWIDTH 21 0
BBX 20 20 1 0
BITMAP
03F800
0DFE00
160500
280380
500140
60F8A0
A3F460
C50850
C50050
C60050
C60050
C50050
C50850
A3F460
60F8A0
500140
280380
160500
0DFE00
03F800
ENDCHAR
STARTCHAR currency.case
ENCODING -1
SWIDTH 676 0
DWIDTH 16 0
BBX 15 15 1 1
BITMAP
2010
5028
A854
57A4
6858
13A0
1460
1860
1460
73A8
4848
9794
A84E
5028
2010
ENDCHAR
STARTCHAR degree.case
ENCODING -1
SWIDTH 413 0
DWIDTH 10 0
BBX 8 9 1 11
BITMAP
3C
5A
A5
C3
C3
A5
99
42
3C
ENDCHAR
STARTCHAR uni0308.case
ENCODING -1
SWIDTH 0 0
DWIDTH 0 0
BBX 11 5 1 21
BITMAP
70C0
8920
8920
8920
70C0
ENDCHAR
STARTCHAR divide.case
ENCODING -1
SWIDTH 618 0
DWIDTH 15 0
BBX 13 13 1 3
BITMAP
0300
0500
0500
0300
FFF8
0000
FFF8
FFF8
0000
0300
0500
0500
0300
ENDCHAR
STARTCHAR uni2215.case
ENCODING -1
SWIDTH 483 0
DWIDTH 12 0
BBX 11 20 0 0
BITMAP
02A0
02C0
0340
0540
0540
0580
0A80
0A80
0B00
0D00
1500
1600
1A00
2A00
2C00
3400
5400
5800
6800
A800
ENDCHAR
STARTCHAR dollar.case
ENCODING -1
SWIDTH 660 0
DWIDTH 16 0
BBX 14 23 1 -1
BITMAP
0300
0300
0B40
3330
5B48
A328
BB54
D330
D300
AE00
59C0
2730
1CE8
0394
0274
032C
D32C
AB54
9368
6B90
1B60
0300
0300
ENDCHAR
STARTCHAR eight.case
ENCODING -1
SWIDTH 561 0
DWIDTH 13 0
BBX 12 20 1 0
BITMAP
1F00
2EC0
70A0
AE60
D150
D0D0
D0D0
B950
A760
5CA0
3340
AEA0
D150
D0D0
D0D0
D150
AE60
70A0
2EC0
1F00
ENDCHAR
STARTCHAR ellipsis.case
ENCODING -1
SWIDTH 766 0
DWIDTH 18 0
BBX 16 4 1 0
BITMAP
B2CB
B2CB
B2CB
B2CB
ENDCHAR
STARTCHAR emdash.case
ENCODING -1
SWIDTH 790 0
DWIDTH 19 0
BBX 17 4 1 8
BITMAP
FFFF80
000000
FFFF80
FFFF80
ENDCHAR
STARTCHAR endash.case
ENCODING -1
SWIDTH 721 0
DWIDTH 17 0
BBX 15 4 1 8
BITMAP
FFFE
0000
FFFE
FFFE
ENDCHAR
STARTCHAR equal.case
ENCODING -1
SWIDTH 618 0
DWIDTH 15 0
BBX 13 11 1 4
BITMAP
FFF8
0000
FFF8
FFF8
0000
0000
0000
FFF8
FFF8
0000
FFF8
ENDCHAR
STARTCHAR Euro.case
ENCODING -1
SWIDTH 767 0
DWIDTH 18 0
BBX 18 20 0 0
BITMAP
00FC00
037F00
0582C0
0A7900
148680
150200
1A0000
200000
FFF000
000000
FFF000
FFF000
200000
1A0000
150200
148600
0A7980
0582C0
037D00
00FE00
ENDCHAR
STARTCHAR exclam.case
ENCODING -1
SWIDTH 262 0
DWIDTH 6 0
BBX 4 20 1 0
BITMAP
B0
B0
B0
B0
B0
B0
B0
B0
B0
B0
B0
B0
B0
B0
B0
00
B0
B0
B0
B0
ENDCHAR
STARTCHAR exclamdown.case
ENCODING -1
SWIDTH 262 0
DWIDTH 6 0
BBX 4 20 1 -5
BITMAP
B0
B0
B0
B0
00
B0
B0
B0
B0
B0
B0
B0
B0
B0
B0
B0
B0
B0
B0
B0
ENDCHAR
STARTCHAR five.case
ENCODING -1
SWIDTH 558 0
DWIDTH 13 0
BBX 12 20 1 0
BITMAP
FFE0
0000
FFE0
FFE0
0000
B000
B000
B000
B700
B0C0
B720
B6A0
0150
00D0
D0D0
D150
AE60
50A0
2FC0
1F00
ENDCHAR
STARTCHAR four.case
ENCODING -1
SWIDTH 585 0
DWIDTH 14 0
BBX 12 20 1 0
BITMAP
0540
0680
0A80
0B00
1500
1600
2A00
2C00
5400
5400
6AC0
BAC0
02C0
FAD0
FAD0
02C0
FAD0
02C0
02C0
02C0
ENDCHAR
STARTCHAR uni2074.case
ENCODING -1
SWIDTH 312 0
DWIDTH 7 0
BBX 6 8 1 12
BITMAP
38
50
60
A0
14
F4
F4
14
ENDCHAR
STARTCHAR fraction.case
ENCODING -1
SWIDTH 655 0
DWIDTH 16 0
BBX 14 20 1 0
BITMAP
001C
0028
0050
0050
00A0
00A0
0140
0140
0280
0280
0500
0600
0A00
0C00
1400
1800
2800
5000
5000
A000
ENDCHAR
STARTCHAR gravecomb.case
ENCODING -1
SWIDTH 0 0
DWIDTH 0 0
BBX 6 5 1 21
BITMAP
A0
50
30
28
14
ENDCHAR
STARTCHAR greater.case
ENCODING -1
SWIDTH 677 0
DWIDTH 16 0
BBX 14 17 1 1
BITMAP
8000
C000
B000
4C00
B200
6D80
1360
0C90
036C
04D8
1B20
6480
9B00
6C00
9000
6000
8000
ENDCHAR
STARTCHAR guillemotleft.case
ENCODING -1
SWIDTH 666 0
DWIDTH 16 0
BBX 14 13 1 3
BITMAP
0404
0808
3434
4848
B4B4
4848
B0A0
4858
B4B4
4848
3434
0808
0404
ENDCHAR
STARTCHAR guillemotright.case
ENCODING -1
SWIDTH 666 0
DWIDTH 16 0
BBX 14 13 1 3
BITMAP
8080
4040
B0B0
4848
B4B4
4848
1434
6848
B4B4
4848
B0B0
4040
8080
ENDCHAR
STARTCHAR guilsinglleft.case
ENCODING -1
SWIDTH 338 0
DWIDTH 8 0
BBX 6 13 1 3
BITMAP
04
08
34
48
B4
48
B0
48
B4
48
34
08
04
ENDCHAR
STARTCHAR guilsinglright.case
ENCODING -1
SWIDTH 338 0
DWIDTH 8 0
BBX 6 13 1 3
BITMAP
80
40
B0
48
B4
48
14
68
B4
48
B0
40
80
ENDCHAR
STARTCHAR hyphen.case
ENCODING -1
SWIDTH 445 0
DWIDTH 11 0
BBX 8 4 1 8
BITMAP
FF
00
FF
FF
ENDCHAR
STARTCHAR less.case
ENCODING -1
SWIDTH 677 0
DWIDTH 16 0
BBX 14 17 1 1
BITMAP
0004
0008
0034
00D8
0124
06D8
1B60
2480
DB00
36C0
0930
06C8
01B4
0048
0034
000C
0004
ENDCHAR
STARTCHAR logicalnot.case
ENCODING -1
SWIDTH 618 0
DWIDTH 15 0
BBX 13 9 1 3
BITMAP
FFF8
0000
FFF8
FFF8
0000
0068
0068
0068
0068
ENDCHAR
STARTCHAR uni00B5.case
ENCODING -1
SWIDTH 792 0
DWIDTH 19 0
BBX 17 25 1 -5
BITMAP
B01A00
B01A00
B01A00
B01A00
B01A00
B01A00
B01A00
B01A00
B01A00
B01A00
B01A00
B01A00
B01A00
B01A00
B02A00
B46D00
B39480
B42B00
B7D480
B7E380
B00000
B00000
B00000
B00000
B00000
ENDCHAR
STARTCHAR minus.case
ENCODING -1
SWIDTH 618 0
DWIDTH 15 0
BBX 13 4 1 8
BITMAP
FFF8
0000
FFF8
FFF8
ENDCHAR
STARTCHAR multiply.case
ENCODING -1
SWIDTH 580 0
DWIDTH 14 0
BBX 12 12 1 4
BITMAP
1000
1080
6D60
F290
3520
0A40
1480
2940
52A0
A5D0
48E0
3040
ENDCHAR
STARTCHAR nine.case
ENCODING -1
SWIDTH 558 0
DWIDTH 13 0
BBX 12 20 1 -1
BITMAP
1F00
2EC0
70A0
AE60
D150
D0D0
D0D0
B0D0
AED0
4ED0
20D0
1ED0
00D0
00D0
D0D0
D150
AE60
70A0
2EC0
1F00
ENDCHAR
STARTCHAR numbersign.case
ENCODING -1
SWIDTH 776 0
DWIDTH 19 0
BBX 16 20 1 0
BITMAP
0B16
0D1A
0D1A
0D00
75FF
1600
76FF
1600
5AFF
1A00
0034
FFB6
0054
FFDA
FF5A
0058
3468
3468
54A8
58B0
ENDCHAR
STARTCHAR one.case
ENCODING -1
SWIDTH 378 0
DWIDTH 9 0
BBX 8 20 0 0
BITMAP
ED
0D
ED
0D
ED
0D
0D
0D
0D
0D
0D
0D
0D
0D
0D
0D
0D
0D
0D
0D
ENDCHAR
STARTCHAR onehalf.case
ENCODING -1
SWIDTH 735 0
DWIDTH 18 0
BBX 15 20 1 0
BITMAP
D81C
D814
1828
1828
1850
1850
18A0
18A0
1940
0180
0280
031C
0522
062E
0A16
141A
1424
283E
2800
503E
ENDCHAR
STARTCHAR onequarter.case
ENCODING -1
SWIDTH 722 0
DWIDTH 17 0
BBX 15 20 1 0
BITMAP
D81C
D814
1828
1828
1850
1850
18A0
18A0
1940
0180
0280
0314
0518
0628
0A50
1406
1476
2876
2806
5000
ENDCHAR
STARTCHAR uni00B9.case
ENCODING -1
SWIDTH 306 0
DWIDTH 7 0
BBX 5 9 1 11
BITMAP
D8
D8
18
18
18
18
18
18
18
ENDCHAR
STARTCHAR ordfeminine.case
ENCODING -1
SWIDTH 456 0
DWIDTH 11 0
BBX 9 8 1 12
BITMAP
1400
1C00
2A00
2A00
3600
5D00
6300
BE80
ENDCHAR
STARTCHAR ordmasculine.case
ENCODING -1
SWIDTH 489 0
DWIDTH 12 0
BBX 10 9 1 11
BITMAP
1E00
7D00
6280
A140
A140
A140
6280
7D00
1E00
ENDCHAR
STARTCHAR paragraph.case
ENCODING -1
SWIDTH 893 0
DWIDTH 21 0
BBX 19 20 1 0
BITMAP
1FFFE0
600000
8FFFE0
A00000
CFFFE0
D00000
D02A60
D02A60
AFEA60
4FEA60
202A60
1FEA60
002A60
002A60
002A60
002A60
002A60
002A60
002A60
002A60
ENDCHAR
STARTCHAR parenleft.case
ENCODING -1
SWIDTH 290 0
DWIDTH 7 0
BBX 7 23 1 -1
BITMAP
2A
2C
34
58
68
A8
B0
B0
D0
D0
D0
D0
D0
D0
D0
D0
B0
A8
68
58
58
34
2E
ENDCHAR
STARTCHAR parenright.case
ENCODING -1
SWIDTH 290 0
DWIDTH 7 0
BBX 7 23 -1 -3
BITMAP
E8
58
54
34
2C
2A
1A
1A
16
16
16
16
16
16
16
1A
1A
2C
2C
34
58
68
B0
ENDCHAR
STARTCHAR percent.case
ENCODING -1
SWIDTH 827 0
DWIDTH 20 0
BBX 18 20 1 0
BITMAP
3C0540
5A0580
A50A80
C31500
C31500
A52A00
5A3400
3C5400
00A800
00B800
074000
058F00
0A9080
152640
152940
2A30C0
2C30C0
542940
A81680
F80F00
ENDCHAR
STARTCHAR period.case
ENCODING -1
SWIDTH 262 0
DWIDTH 6 0
BBX 4 4 1 0
BITMAP
B0
B0
B0
B0
ENDCHAR
STARTCHAR periodcentered.case
ENCODING -1
SWIDTH 262 0
DWIDTH 6 0
BBX 4 4 1 8
BITMAP
B0
B0
B0
B0
ENDCHAR
STARTCHAR plus.case
ENCODING -1
SWIDTH 616 0
DWIDTH 15 0
BBX 13 13 1 3
BITMAP
0B00
0B00
0B00
0B00
FB78
0B00
FB78
FB78
0B00
0B00
0B00
0B00
0B00
ENDCHAR
STARTCHAR plusminus.case
ENCODING -1
SWIDTH 618 0
DWIDTH 15 0
BBX 13 17 1 0
BITMAP
0B00
0B00
0B00
0B00
FB78
0B00
FB78
FB78
0B00
0B00
0B00
0B00
0B00
FFF8
0000
FFF8
FFF8
ENDCHAR
STARTCHAR question.case
ENCODING -1
SWIDTH 598 0
DWIDTH 14 0
BBX 12 20 1 0
BITMAP
1F80
2040
4F20
5790
A8D0
B0B0
00B0
0130
0250
04A0
0540
0A80
0B00
0B00
0B00
0000
0B00
0B00
0B00
0B00
ENDCHAR
STARTCHAR questiondown.case
ENCODING -1
SWIDTH 598 0
DWIDTH 14 0
BBX 12 20 1 -5
BITMAP
0B00
0B00
0B00
0B00
0000
0B00
0B00
0B00
0D00
3500
5A00
6400
A800
B000
B0B0
A8D0
57D0
4F20
2040
1F80
ENDCHAR
STARTCHAR quotedbl.case
ENCODING -1
SWIDTH 464 0
DWIDTH 11 0
BBX 10 6 1 14
BITMAP
D340
D340
D340
D340
D340
D340
ENDCHAR
STARTCHAR quotedblbase.case
ENCODING -1
SWIDTH 464 0
DWIDTH 11 0
BBX 10 6 1 -1
BITMAP
D540
D540
D540
D540
5140
5140
ENDCHAR
STARTCHAR quotedblleft.case
ENCODING -1
SWIDTH 464 0
DWIDTH 11 0
BBX 10 6 1 12
BITMAP
C300
C300
D340
D340
D340
D340
ENDCHAR
STARTCHAR quotedblright.case
ENCODING -1
SWIDTH 464 0
DWIDTH 11 0
BBX 10 6 1 14
BITMAP
D540
D540
D540
D540
5140
5140
ENDCHAR
STARTCHAR quoteleft.case
ENCODING -1
SWIDTH 212 0
DWIDTH 5 0
BBX 4 6 1 12
BITMAP
C0
C0
D0
D0
D0
D0
ENDCHAR
STARTCHAR quoteright.case
ENCODING -1
SWIDTH 212 0
DWIDTH 5 0
BBX 3 6 1 14
BITMAP
E0
E0
E0
E0
60
60
ENDCHAR
STARTCHAR quotesinglbase.case
ENCODING -1
SWIDTH 212 0
DWIDTH 5 0
BBX 3 6 1 -1
BITMAP
E0
E0
E0
E0
60
60
ENDCHAR
STARTCHAR quotesingle.case
ENCODING -1
SWIDTH 212 0
DWIDTH 5 0
BBX 3 6 1 14
BITMAP
E0
E0
E0
E0
E0
E0
ENDCHAR
STARTCHAR registered.case
ENCODING -1
SWIDTH 895 0
DWIDTH 21 0
BBX 20 20 1 0
BITMAP
03F800
0DFE00
160500
280380
500140
62F8A0
A30460
C2F450
C30C50
C2F450
C2F850
C32850
C32850
A31460
6314A0
500140
280380
160500
0DFE00
03F800
ENDCHAR
STARTCHAR uni030A.case
ENCODING -1
SWIDTH 0 0
DWIDTH 0 0
BBX 5 5 1 21
BITMAP
70
88
88
88
70
ENDCHAR
STARTCHAR section.case
ENCODING -1
SWIDTH 645 0
DWIDTH 15 0
BBX 14 24 1 -3
BITMAP
0FC0
1FF0
3028
5794
6870
5C00
5B80
2760
18D0
2728
5ED8
A858
B068
A9E8
6710
58E0
3790
0E48
01A8
1058
CFA8
B070
6FB0
1FC0
ENDCHAR
STARTCHAR semicolon.case
ENCODING -1
SWIDTH 338 0
DWIDTH 8 0
BBX 6 15 1 -2
BITMAP
34
34
34
34
00
00
00
00
00
34
54
58
68
A8
B0
ENDCHAR
STARTCHAR seven.case
ENCODING -1
SWIDTH 505 0
DWIDTH 12 0
BBX 10 20 1 0
BITMAP
FFC0
0000
FFC0
0000
FFC0
0000
0340
0540
0580
0680
0A80
0B00
0D00
0D00
1500
1600
1A00
2A00
2C00
3400
ENDCHAR
STARTCHAR six.case
ENCODING -1
SWIDTH 558 0
DWIDTH 13 0
BBX 12 20 1 0
BITMAP
1F00
2FC0
70A0
AE60
D150
D0D0
D000
D000
DF00
D0C0
DF20
DEA0
D150
D0D0
D0D0
D150
AE60
70A0
2FC0
1F00
ENDCHAR
STARTCHAR slash.case
ENCODING -1
SWIDTH 504 0
DWIDTH 12 0
BBX 12 23 0 -1
BITMAP
00D0
0150
0160
01A0
02A0
02C0
0340
0540
0580
0680
0A80
0B00
0D00
1500
1600
1A00
2A00
2C00
3400
5400
5800
6800
A800
ENDCHAR
STARTCHAR uni00AD.case
ENCODING -1
SWIDTH 445 0
DWIDTH 11 0
BBX 8 4 1 8
BITMAP
FF
00
FF
FF
ENDCHAR
STARTCHAR sterling.case
ENCODING -1
SWIDTH 618 0
DWIDTH 15 0
BBX 14 20 0 0
BITMAP
0FC0
1030
27C8
5BF4
5834
5828
5800
0400
FFE0
0000
FFE0
FFE0
0000
2A00
5400
0000
FFFC
0000
FFFC
FFFC
ENDCHAR
STARTCHAR three.case
ENCODING -1
SWIDTH 558 0
DWIDTH 13 0
BBX 12 20 1 0
BITMAP
1F00
2EC0
50A0
AE60
D150
D0D0
00D0
0150
0320
00C0
0320
02A0
0150
00D0
D0D0
D150
AE60
50A0
2FC0
1F00
ENDCHAR
STARTCHAR threequarters.case
ENCODING -1
SWIDTH 722 0
DWIDTH 17 0
BBX 15 20 1 0
BITMAP
781C
B414
1428
1828
0850
1450
14A0
B8A0
7140
0180
0280
0314
0518
0628
0A50
1406
1476
2876
2806
5000
ENDCHAR
STARTCHAR uni00B3.case
ENCODING -1
SWIDTH 332 0
DWIDTH 8 0
BBX 6 9 1 11
BITMAP
78
B4
14
18
08
14
14
B8
70
ENDCHAR
STARTCHAR tildecomb.case
ENCODING -1
SWIDTH 0 0
DWIDTH 0 0
BBX 9 3 1 21
BITMAP
7080
8880
8700
ENDCHAR
STARTCHAR trademark.case
ENCODING -1
SWIDTH 850 0
DWIDTH 20 0
BBX 19 10 0 10
BITMAP
FF5060
0058E0
FF5560
185660
185AE0
185560
185260
185060
185060
185060
ENDCHAR
STARTCHAR two.case
ENCODING -1
SWIDTH 558 0
DWIDTH 13 0
BBX 12 20 1 0
BITMAP
1F00
20C0
4F20
BEA0
D150
D0D0
00D0
0150
0260
02A0
0540
0A80
1500
2A00
5600
0000
FFE0
0000
FFE0
FFE0
ENDCHAR
STARTCHAR uni00B2.case
ENCODING -1
SWIDTH 339 0
DWIDTH 8 0
BBX 6 9 1 11
BITMAP
38
44
B4
14
28
50
FC
00
FC
ENDCHAR
STARTCHAR underscore.case
ENCODING -1
SWIDTH 667 0
DWIDTH 16 0
BBX 14 4 1 0
BITMAP
FFFC
0000
FFFC
FFFC
ENDCHAR
STARTCHAR yen.case
ENCODING -1
SWIDTH 769 0
DWIDTH 18 0
BBX 18 20 0 0
BITMAP
E80540
540680
2A0A80
2A1500
151A00
0AAA00
0AB400
055800
02C800
02A800
015000
016000
0D6E00
016000
0D6E00
016000
0D6E00
016000
016000
016000
ENDCHAR
STARTCHAR zero.case
ENCODING -1
SWIDTH 558 0
DWIDTH 13 0
BBX 12 20 1 0
BITMAP
1F00
2EC0
70A0
AE60
D150
D0D0
D0D0
D0D0
D0D0
D0D0
D0D0
D0D0
D0D0
D0D0
D0D0
D150
AE60
70A0
2EC0
1F00
ENDCHAR
ENDFONT
